# xmcd CD database file
#
# Track frame offsets:
#	150
#	8125
#	24587
#	38187
#	53737
#	75250
#	106125
#	122525
#	134575
#	149150
#	164875
#	182675
#	211125
#
# Disc length: 3086 seconds
#
# Revision: 0
# Processed by: cddbd v1.5.1PL0 Copyright (c) Steve Scherf et al.
# Submitted via: CDex 1.51
#
DISCID=b00c0c0d
DTITLE=民藝復興 - 極樂
DYEAR=1992
DGENRE=New Age
TTITLE0=Fanny and Her Roses
TTITLE1=地下情懷
TTITLE2=Tom With Cat
TTITLE3=別要別
TTITLE4=苦悶之謳
TTITLE5=極樂
TTITLE6=青春祭
TTITLE7=O
TTITLE8=自閉夢
TTITLE9=樂極
TTITLE10=You Never Cry
TTITLE11=Mystics
TTITLE12=吹敲
EXTD=YEAR: 1992
EXTT0=
EXTT1=
EXTT2=
EXTT3=
EXTT4=
EXTT5=
EXTT6=
EXTT7=
EXTT8=
EXTT9=
EXTT10=
EXTT11=
EXTT12=
PLAYORDER=
